<svg width="36" height="30" viewBox="0 0 36 30" fill="none" xmlns="http://www.w3.org/2000/svg">
<path fill-rule="evenodd" clip-rule="evenodd" d="M18.121 7.34179L16.0298 5.13307C13.0382 1.97328 8.18779 1.97328 5.19614 5.13307C2.2045 8.29287 2.2045 13.4159 5.19614 16.5757L12.6635 24.4628C15.4206 27.3749 19.7601 27.6039 22.7631 25.1464L22.7989 25.1171L22.8358 25.0893C23.1777 24.8318 23.5052 24.5402 23.8142 24.2139L30.8102 16.8246C33.8019 13.6648 33.8019 8.54179 30.8102 5.382C27.8186 2.2222 22.9682 2.2222 19.9765 5.382L18.121 7.34179ZM18.3661 3.68101L18.121 3.93982L17.6403 3.43208C13.7592 -0.667141 7.46675 -0.667139 3.58568 3.43208C-0.295404 7.53131 -0.295404 14.1775 3.58568 18.2767L11.053 26.1638C14.6315 29.9433 20.2599 30.2381 24.1581 27.0479C24.6022 26.7135 25.0261 26.3358 25.4247 25.9149L32.4207 18.5256C36.3018 14.4264 36.3018 7.78023 32.4207 3.68101C28.5396 -0.418213 22.2471 -0.418216 18.3661 3.68101Z" fill="#CD57FF"/>
</svg>
