<svg width="34" height="31" viewBox="0 0 34 31" fill="none" xmlns="http://www.w3.org/2000/svg">
<path fill-rule="evenodd" clip-rule="evenodd" d="M7.32364 21.8106C7.74614 22.2849 7.70418 23.0119 7.22992 23.4344L3.43295 26.8169H13.163C13.7982 26.8169 14.3131 27.3318 14.3131 27.967C14.3131 28.6022 13.7982 29.1171 13.163 29.1171H2.82897C0.926603 29.1171 0.0315124 26.7667 1.45197 25.5013L5.69992 21.7169C6.17417 21.2944 6.90114 21.3364 7.32364 21.8106Z" fill="#CD57FF"/>
<path fill-rule="evenodd" clip-rule="evenodd" d="M18.1994 2.50736C11.1732 2.50736 5.47738 8.20322 5.47738 15.2294C5.47738 17.7115 6.18704 20.0244 7.41403 21.9802C7.75158 22.5182 7.58904 23.228 7.051 23.5656C6.51296 23.9031 5.80315 23.7406 5.46561 23.2025C4.01554 20.8911 3.17726 18.1564 3.17726 15.2294C3.17726 6.9329 9.90292 0.207245 18.1994 0.207245C18.8346 0.207245 19.3495 0.722142 19.3495 1.3573C19.3495 1.99246 18.8346 2.50736 18.1994 2.50736ZM32.0716 14.0794C32.7067 14.0794 33.2216 14.5943 33.2216 15.2294C33.2216 23.5259 26.496 30.2516 18.1994 30.2516C16.2172 30.2516 14.0487 29.6524 12.4152 29.0134C11.8237 28.7821 11.5318 28.115 11.7631 27.5234C11.9945 26.9319 12.6616 26.64 13.2531 26.8714C14.7504 27.457 16.6171 27.9515 18.1994 27.9515C25.2256 27.9515 30.9215 22.2556 30.9215 15.2294C30.9215 14.5943 31.4364 14.0794 32.0716 14.0794Z" fill="#CD57FF"/>
</svg>
