<svg width="38" height="38" viewBox="0 0 38 38" fill="none" xmlns="http://www.w3.org/2000/svg">
<path fill-rule="evenodd" clip-rule="evenodd" d="M19 5.46154C11.5229 5.46154 5.46154 11.5229 5.46154 19C5.46154 21.24 6.00458 23.3496 6.96512 25.2077C7.05543 25.3824 7.10256 25.5762 7.10256 25.7728V30.8974H12.2272C12.4238 30.8974 12.6176 30.9446 12.7923 31.0349C14.6504 31.9954 16.76 32.5385 19 32.5385C26.4771 32.5385 32.5385 26.4771 32.5385 19C32.5385 11.5229 26.4771 5.46154 19 5.46154ZM3 19C3 10.1634 10.1634 3 19 3C27.8366 3 35 10.1634 35 19C35 27.8366 27.8366 35 19 35C16.4659 35 14.0664 34.41 11.9342 33.359H5.87179C5.19206 33.359 4.64103 32.8079 4.64103 32.1282V26.0658C3.58998 23.9336 3 21.5341 3 19Z" fill="#CD57FF"/>
<path d="M15.7179 19C15.7179 19.9063 14.9832 20.641 14.0769 20.641C13.1706 20.641 12.4359 19.9063 12.4359 19C12.4359 18.0937 13.1706 17.359 14.0769 17.359C14.9832 17.359 15.7179 18.0937 15.7179 19Z" fill="#CD57FF"/>
<path d="M20.641 19C20.641 19.9063 19.9063 20.641 19 20.641C18.0937 20.641 17.359 19.9063 17.359 19C17.359 18.0937 18.0937 17.359 19 17.359C19.9063 17.359 20.641 18.0937 20.641 19Z" fill="#CD57FF"/>
<path d="M25.5641 19C25.5641 19.9063 24.8294 20.641 23.9231 20.641C23.0168 20.641 22.2821 19.9063 22.2821 19C22.2821 18.0937 23.0168 17.359 23.9231 17.359C24.8294 17.359 25.5641 18.0937 25.5641 19Z" fill="#CD57FF"/>
</svg>
