<svg width="38" height="38" viewBox="0 0 38 38" fill="none" xmlns="http://www.w3.org/2000/svg">
<path d="M28.9776 17.9851C33.011 17.9851 36.2807 14.7153 36.2807 10.6819C36.2807 6.64847 33.011 3.37872 28.9776 3.37872C24.9441 3.37872 21.6744 6.64847 21.6744 10.6819C21.6744 14.7153 24.9441 17.9851 28.9776 17.9851Z" fill="#CD57FF"/>
<circle cx="19.8926" cy="19.6824" r="14.9389" fill="#CD57FF"/>
<path d="M4.30244 33.432H17.3854C18.4436 33.432 18.7767 32.0032 17.8276 31.5351L9.3403 27.3499C8.97142 27.168 8.52879 27.2305 8.2247 27.5074L3.62912 31.6927C2.95365 32.3078 3.38885 33.432 4.30244 33.432Z" fill="#CD57FF"/>
<path d="M25.9295 9.05449C25.2719 8.74408 24.9791 7.94155 25.4597 7.39581C25.7768 7.03568 26.149 6.72442 26.5648 6.47475C27.3597 5.99756 28.2781 5.76678 29.2041 5.81158C30.1301 5.85639 31.022 6.17477 31.767 6.72647C32.512 7.27816 33.0767 8.03839 33.3897 8.91103C33.7026 9.78366 33.7498 10.7295 33.5252 11.6289C33.3006 12.5284 32.8143 13.341 32.1279 13.9641C31.4415 14.5872 30.5857 14.9927 29.6687 15.1294C29.189 15.2009 28.7038 15.1972 28.2301 15.1207C27.5122 15.0047 27.2283 14.199 27.5387 13.5415L27.5842 13.445C27.8695 12.8407 28.6195 12.6235 29.2804 12.5249C29.6822 12.465 30.0573 12.2873 30.3581 12.0143C30.6589 11.7412 30.872 11.3851 30.9704 10.991C31.0688 10.5968 31.0481 10.1824 30.911 9.79997C30.7738 9.41757 30.5264 9.08443 30.1999 8.84267C29.8734 8.60091 29.4826 8.46139 29.0768 8.44176C28.6711 8.42213 28.2686 8.52326 27.9203 8.73237C27.3474 9.07632 26.6302 9.3853 26.026 9.10005L25.9295 9.05449Z" fill="#F7E4FF"/>
<circle cx="28.9776" cy="18.2807" r="1.62519" fill="#F7E4FF"/>
</svg>
