<svg width="38" height="38" viewBox="0 0 38 38" fill="none" xmlns="http://www.w3.org/2000/svg">
<circle cx="19.8926" cy="19.6824" r="14.9389" fill="#CD57FF"/>
<path d="M4.30244 33.432H17.3854C18.4436 33.432 18.7767 32.0032 17.8276 31.5352L9.3403 27.3499C8.97142 27.168 8.52879 27.2305 8.2247 27.5075L3.62912 31.6927C2.95365 32.3079 3.38885 33.432 4.30244 33.432Z" fill="#CD57FF"/>
<path d="M28.9776 17.9851C33.011 17.9851 36.2807 14.7153 36.2807 10.6819C36.2807 6.64848 33.011 3.37874 28.9776 3.37874C24.9441 3.37874 21.6744 6.64848 21.6744 10.6819C21.6744 14.7153 24.9441 17.9851 28.9776 17.9851Z" fill="#CD57FF"/>
<path d="M26.0957 10.9782L27.1123 11.9948C27.5028 12.3854 28.136 12.3854 28.5265 11.9948L31.8595 8.66188" stroke="#F7E4FF" stroke-width="2" stroke-linecap="round"/>
</svg>
