<svg width="38" height="38" viewBox="0 0 38 38" fill="none" xmlns="http://www.w3.org/2000/svg">
<circle cx="19.8926" cy="19.6824" r="14.9389" fill="#CD57FF"/>
<path d="M4.30246 33.432H17.3854C18.4436 33.432 18.7768 32.0032 17.8277 31.5351L9.34032 27.3499C8.97144 27.168 8.5288 27.2305 8.22472 27.5074L3.62913 31.6927C2.95367 32.3078 3.38886 33.432 4.30246 33.432Z" fill="#CD57FF"/>
<path d="M28.9776 17.9851C33.011 17.9851 36.2807 14.7153 36.2807 10.6819C36.2807 6.64847 33.011 3.37872 28.9776 3.37872C24.9441 3.37872 21.6744 6.64847 21.6744 10.6819C21.6744 14.7153 24.9441 17.9851 28.9776 17.9851Z" fill="#CD57FF"/>
<path d="M31.1685 8.49094L26.7866 12.8728" stroke="#F7E4FF" stroke-width="2" stroke-linecap="round" stroke-linejoin="round"/>
<path d="M26.7866 8.49094L31.1685 12.8728" stroke="#F7E4FF" stroke-width="2" stroke-linecap="round" stroke-linejoin="round"/>
</svg>
