<svg width="38" height="38" viewBox="0 0 38 38" fill="none" xmlns="http://www.w3.org/2000/svg">
<path fill-rule="evenodd" clip-rule="evenodd" d="M9.32364 26.8106C9.74614 27.2849 9.70418 28.0119 9.22992 28.4344L5.43295 31.8169H15.163C15.7982 31.8169 16.3131 32.3318 16.3131 32.967C16.3131 33.6022 15.7982 34.1171 15.163 34.1171H4.82897C2.9266 34.1171 2.03151 31.7667 3.45197 30.5013L7.69992 26.7169C8.17417 26.2944 8.90114 26.3364 9.32364 26.8106Z" fill="#CD57FF"/>
<path fill-rule="evenodd" clip-rule="evenodd" d="M20.1994 7.50736C13.1732 7.50736 7.47738 13.2032 7.47738 20.2294C7.47738 22.7115 8.18704 25.0244 9.41403 26.9802C9.75158 27.5182 9.58904 28.228 9.051 28.5656C8.51296 28.9031 7.80315 28.7406 7.46561 28.2025C6.01554 25.8911 5.17726 23.1564 5.17726 20.2294C5.17726 11.9329 11.9029 5.20724 20.1994 5.20724C20.8346 5.20724 21.3495 5.72214 21.3495 6.3573C21.3495 6.99246 20.8346 7.50736 20.1994 7.50736ZM34.0716 19.0794C34.7067 19.0794 35.2216 19.5943 35.2216 20.2294C35.2216 28.5259 28.496 35.2516 20.1994 35.2516C18.2172 35.2516 16.0487 34.6524 14.4152 34.0134C13.8237 33.7821 13.5318 33.115 13.7631 32.5234C13.9945 31.9319 14.6616 31.64 15.2531 31.8714C16.7504 32.457 18.6171 32.9515 20.1994 32.9515C27.2256 32.9515 32.9215 27.2556 32.9215 20.2294C32.9215 19.5943 33.4364 19.0794 34.0716 19.0794Z" fill="#CD57FF"/>
<path d="M36.0913 11.1424C36.6452 11.2384 37.0239 11.7693 36.8428 12.3014C36.5042 13.2966 35.9278 14.2 35.1575 14.93C34.1397 15.8946 32.8375 16.5048 31.445 16.6698C30.0524 16.8348 28.6437 16.5457 27.4286 15.8457C26.2135 15.1456 25.2569 14.0719 24.7012 12.7844C24.1454 11.4969 24.0202 10.0644 24.3442 8.7C24.6681 7.33561 25.424 6.11226 26.4992 5.21201C27.5744 4.31176 28.9115 3.78271 30.3116 3.70359C31.3712 3.64372 32.4239 3.84394 33.3803 4.28007C33.8918 4.51329 34.0184 5.15301 33.7084 5.62191C33.3984 6.0908 32.7685 6.20684 32.2418 6.01055C31.6656 5.7958 31.0477 5.70082 30.4264 5.73592C29.4641 5.79031 28.545 6.15395 27.8059 6.77275C27.0669 7.39154 26.5474 8.23242 26.3247 9.17025C26.102 10.1081 26.1881 11.0927 26.5701 11.9777C26.9521 12.8627 27.6096 13.6007 28.4448 14.0819C29.28 14.5631 30.2483 14.7617 31.2055 14.6483C32.1627 14.5349 33.0577 14.1155 33.7573 13.4525C34.209 13.0245 34.5636 12.5097 34.8026 11.9431C35.021 11.4251 35.5375 11.0463 36.0913 11.1424Z" fill="#CD57FF"/>
<path d="M29.4805 9.71379L30.4971 10.7304C30.8877 11.121 31.5208 11.121 31.9113 10.7304L36.0731 6.56871" stroke="#CD57FF" stroke-width="2" stroke-linecap="round"/>
</svg>
