<svg width="38" height="38" viewBox="0 0 38 38" fill="none" xmlns="http://www.w3.org/2000/svg">
<path fill-rule="evenodd" clip-rule="evenodd" d="M9.32364 26.8106C9.74614 27.2849 9.70418 28.0118 9.22993 28.4343L5.43295 31.8169H15.1631C15.7982 31.8169 16.3131 32.3318 16.3131 32.967C16.3131 33.6022 15.7982 34.1171 15.1631 34.1171H4.82898C2.92661 34.1171 2.03152 31.7667 3.45197 30.5013L7.69992 26.7169C8.17418 26.2944 8.90114 26.3364 9.32364 26.8106Z" fill="#CD57FF"/>
<path fill-rule="evenodd" clip-rule="evenodd" d="M20.1994 7.50735C13.1732 7.50735 7.47738 13.2032 7.47738 20.2294C7.47738 22.7115 8.18704 25.0243 9.41404 26.9802C9.75158 27.5182 9.58904 28.228 9.051 28.5656C8.51296 28.9031 7.80316 28.7406 7.46561 28.2025C6.01555 25.8911 5.17727 23.1564 5.17727 20.2294C5.17727 11.9329 11.9029 5.20724 20.1994 5.20724C20.8346 5.20724 21.3495 5.72214 21.3495 6.35729C21.3495 6.99245 20.8346 7.50735 20.1994 7.50735ZM34.0716 19.0794C34.7067 19.0794 35.2216 19.5943 35.2216 20.2294C35.2216 28.5259 28.496 35.2516 20.1994 35.2516C18.2172 35.2516 16.0487 34.6523 14.4152 34.0134C13.8237 33.782 13.5318 33.115 13.7631 32.5234C13.9945 31.9319 14.6616 31.64 15.2531 31.8714C16.7504 32.457 18.6171 32.9515 20.1994 32.9515C27.2256 32.9515 32.9215 27.2556 32.9215 20.2294C32.9215 19.5943 33.4364 19.0794 34.0716 19.0794Z" fill="#CD57FF"/>
<path d="M27.9766 12.1289C27.6038 13.0075 28.0199 14.0516 28.9696 14.1457C29.5924 14.2073 30.2249 14.1667 30.8417 14.0215C32.0238 13.7432 33.0864 13.0955 33.8754 12.1723C34.6644 11.2492 35.1386 10.0986 35.2293 8.88755C35.32 7.67654 35.0224 6.46814 34.3797 5.43775C33.737 4.40735 32.7827 3.60858 31.6552 3.15736C30.5278 2.70615 29.2859 2.62598 28.1097 2.92849C26.9336 3.231 25.8845 3.90044 25.1147 4.83965C24.713 5.32969 24.3983 5.87987 24.1798 6.46626C23.8465 7.36058 24.6011 8.19349 25.5541 8.24517L25.8548 8.26148C26.6418 8.30416 27.2881 7.64011 27.7877 7.03059C28.0917 6.65962 28.5061 6.3952 28.9707 6.27571C29.4352 6.15623 29.9258 6.18789 30.3711 6.36611C30.8164 6.54434 31.1934 6.85984 31.4472 7.26683C31.7011 7.67382 31.8186 8.15112 31.7828 8.62945C31.747 9.10778 31.5597 9.56225 31.248 9.92689C30.9364 10.2915 30.5167 10.5474 30.0497 10.6573C29.2826 10.8379 28.402 11.1262 28.0942 11.8517L27.9766 12.1289Z" fill="#CD57FF"/>
<path d="M31.5606 17.2971C31.5606 18.4171 30.6527 19.325 29.5327 19.325C28.4128 19.325 27.5049 18.4171 27.5049 17.2971C27.5049 16.1772 28.4128 15.2693 29.5327 15.2693C30.6527 15.2693 31.5606 16.1772 31.5606 17.2971Z" fill="#CD57FF"/>
</svg>
