<svg width="38" height="38" viewBox="0 0 38 38" fill="none" xmlns="http://www.w3.org/2000/svg">
<path d="M32.6469 32.1763C32.3703 29.692 31.423 27.3298 29.9065 25.3426C28.3894 23.3548 26.36 21.8174 24.0356 20.895L22.4892 20.2813C22.482 20.2785 22.4807 20.2689 22.4867 20.2641L23.7943 19.2354C25.0819 18.2225 26.0217 16.8334 26.4831 15.2615C26.9444 13.6896 26.9042 12.013 26.3682 10.465C25.8322 8.91693 24.827 7.57443 23.4923 6.62424C22.1577 5.67405 20.5601 5.16344 18.9217 5.16344C17.2834 5.16344 15.6858 5.67405 14.3511 6.62424C13.0165 7.57443 12.0113 8.91693 11.4753 10.465C10.9393 12.013 10.8991 13.6896 11.3604 15.2615C11.8217 16.8334 12.7616 18.2225 14.0492 19.2354L15.3519 20.2603C15.3579 20.265 15.3565 20.2746 15.3494 20.2774L13.8108 20.8938C11.4961 21.8211 9.47643 23.3591 7.96715 25.3438C6.45798 27.3284 5.51566 29.6852 5.24061 32.1631" stroke="#CD57FF" stroke-width="2.5" stroke-linecap="round" stroke-linejoin="round"/>
</svg>
